<mxfile host="Electron" agent="Mozilla/5.0 (Windows NT 10.0; Win64; x64) AppleWebKit/537.36 (KHTML, like Gecko) draw.io/24.7.8 Chrome/128.0.6613.36 Electron/32.0.1 Safari/537.36" version="24.7.8" pages="3">
  <diagram name="第 1 页" id="47Y6Iy7UmbMB-cJKOj3I">
    <mxGraphModel dx="4399" dy="2470" grid="1" gridSize="1" guides="1" tooltips="1" connect="1" arrows="1" fold="1" page="1" pageScale="1" pageWidth="827" pageHeight="1169" math="0" shadow="0">
      <root>
        <mxCell id="0" />
        <mxCell id="1" parent="0" />
        <mxCell id="AYgcl38Yw4iXGsQR6CLw-3" value="" style="rounded=0;whiteSpace=wrap;html=1;movable=1;resizable=1;rotatable=1;deletable=1;editable=1;locked=0;connectable=1;fillColor=#dae8fc;strokeColor=#6c8ebf;" parent="1" vertex="1">
          <mxGeometry x="-1436" y="82" width="1840" height="1080" as="geometry" />
        </mxCell>
        <mxCell id="AYgcl38Yw4iXGsQR6CLw-4" value="" style="rounded=0;whiteSpace=wrap;html=1;fillColor=#e1d5e7;strokeColor=#9673a6;" parent="1" vertex="1">
          <mxGeometry x="-1356" y="109" width="1680" height="1050" as="geometry" />
        </mxCell>
        <mxCell id="AYgcl38Yw4iXGsQR6CLw-5" value="" style="rounded=0;whiteSpace=wrap;html=1;fillColor=#d5e8d4;strokeColor=#82b366;" parent="1" vertex="1">
          <mxGeometry x="324" y="109" width="69" height="999" as="geometry" />
        </mxCell>
        <mxCell id="AYgcl38Yw4iXGsQR6CLw-6" value="" style="rounded=0;whiteSpace=wrap;html=1;fillColor=#d5e8d4;strokeColor=#82b366;" parent="1" vertex="1">
          <mxGeometry x="-1425" y="109" width="69" height="999" as="geometry" />
        </mxCell>
        <mxCell id="AYgcl38Yw4iXGsQR6CLw-7" value="" style="rounded=0;whiteSpace=wrap;html=1;fillColor=#fff2cc;strokeColor=#d6b656;" parent="1" vertex="1">
          <mxGeometry x="-1356" y="106" width="1680" height="3" as="geometry" />
        </mxCell>
        <mxCell id="AYgcl38Yw4iXGsQR6CLw-8" value="" style="endArrow=none;html=1;rounded=0;" parent="1" edge="1">
          <mxGeometry width="50" height="50" relative="1" as="geometry">
            <mxPoint x="-1605" y="34" as="sourcePoint" />
            <mxPoint x="766" y="34" as="targetPoint" />
          </mxGeometry>
        </mxCell>
      </root>
    </mxGraphModel>
  </diagram>
  <diagram id="5jbkTRvFC9rpYvD3jkwO" name="第 2 页">
    <mxGraphModel dx="5592" dy="4940" grid="1" gridSize="1" guides="1" tooltips="1" connect="1" arrows="1" fold="1" page="1" pageScale="1" pageWidth="827" pageHeight="1169" math="0" shadow="0">
      <root>
        <mxCell id="0" />
        <mxCell id="1" parent="0" />
        <mxCell id="A7pPWMEYENYOwtYfuv_A-1" value="" style="rounded=0;whiteSpace=wrap;html=1;fillColor=#dae8fc;strokeColor=#6c8ebf;" vertex="1" parent="1">
          <mxGeometry x="-50" y="570" width="2240" height="1089" as="geometry" />
        </mxCell>
        <mxCell id="A7pPWMEYENYOwtYfuv_A-2" value="" style="rounded=0;whiteSpace=wrap;html=1;fillColor=#d5e8d4;strokeColor=#82b366;" vertex="1" parent="1">
          <mxGeometry x="240" y="573" width="1680" height="1050" as="geometry" />
        </mxCell>
      </root>
    </mxGraphModel>
  </diagram>
  <diagram id="3Re3-vLb9PCwhOAPXduc" name="第 3 页">
    <mxGraphModel dx="14148" dy="12408" grid="1" gridSize="10" guides="1" tooltips="1" connect="1" arrows="1" fold="1" page="1" pageScale="1" pageWidth="10000" pageHeight="10000" math="0" shadow="0">
      <root>
        <mxCell id="0" />
        <mxCell id="1" parent="0" />
        <mxCell id="DgHET1fLF6kAz4JPhvIX-1" value="" style="rounded=0;whiteSpace=wrap;html=1;fillColor=#dae8fc;strokeColor=#6c8ebf;" vertex="1" parent="1">
          <mxGeometry x="-5705" y="-4990" width="1910" height="1095" as="geometry" />
        </mxCell>
        <mxCell id="DgHET1fLF6kAz4JPhvIX-2" value="" style="rounded=0;whiteSpace=wrap;html=1;fillColor=#d5e8d4;strokeColor=#82b366;" vertex="1" parent="1">
          <mxGeometry x="-5280" y="-4885" width="1060" height="670" as="geometry" />
        </mxCell>
        <mxCell id="DgHET1fLF6kAz4JPhvIX-12" value="&lt;font style=&quot;font-size: 30px;&quot;&gt;Hor Total Time==2240pixels&lt;/font&gt;" style="text;html=1;align=center;verticalAlign=middle;resizable=0;points=[];autosize=1;strokeColor=none;fillColor=none;" vertex="1" parent="1">
          <mxGeometry x="-4945" y="-5120" width="390" height="50" as="geometry" />
        </mxCell>
        <mxCell id="DgHET1fLF6kAz4JPhvIX-13" value="" style="endArrow=classic;startArrow=classic;html=1;rounded=0;exitX=1;exitY=0;exitDx=0;exitDy=0;strokeWidth=4;" edge="1" parent="1">
          <mxGeometry width="50" height="50" relative="1" as="geometry">
            <mxPoint x="-3800" y="-5060" as="sourcePoint" />
            <mxPoint x="-5705" y="-5060" as="targetPoint" />
          </mxGeometry>
        </mxCell>
        <mxCell id="DgHET1fLF6kAz4JPhvIX-15" value="" style="endArrow=classic;startArrow=classic;html=1;rounded=0;strokeWidth=4;" edge="1" parent="1">
          <mxGeometry width="50" height="50" relative="1" as="geometry">
            <mxPoint x="-4220" y="-5146" as="sourcePoint" />
            <mxPoint x="-5280" y="-5146" as="targetPoint" />
          </mxGeometry>
        </mxCell>
        <mxCell id="DgHET1fLF6kAz4JPhvIX-17" value="&lt;font style=&quot;font-size: 30px;&quot;&gt;Hor Addr Time==1680pixels&lt;/font&gt;" style="text;html=1;align=center;verticalAlign=middle;resizable=0;points=[];autosize=1;strokeColor=none;fillColor=none;" vertex="1" parent="1">
          <mxGeometry x="-4945" y="-5206" width="390" height="50" as="geometry" />
        </mxCell>
        <mxCell id="DgHET1fLF6kAz4JPhvIX-18" value="" style="endArrow=classic;startArrow=classic;html=1;rounded=0;strokeWidth=4;" edge="1" parent="1">
          <mxGeometry width="50" height="50" relative="1" as="geometry">
            <mxPoint x="-5276" y="-5200" as="sourcePoint" />
            <mxPoint x="-6138" y="-5200" as="targetPoint" />
          </mxGeometry>
        </mxCell>
        <mxCell id="DgHET1fLF6kAz4JPhvIX-22" value="" style="rounded=0;whiteSpace=wrap;html=1;fillColor=#dae8fc;strokeColor=#6c8ebf;" vertex="1" parent="1">
          <mxGeometry x="-3795" y="-4990" width="1910" height="1095" as="geometry" />
        </mxCell>
        <mxCell id="DgHET1fLF6kAz4JPhvIX-23" value="" style="rounded=0;whiteSpace=wrap;html=1;fillColor=#d5e8d4;strokeColor=#82b366;" vertex="1" parent="1">
          <mxGeometry x="-3370" y="-4885" width="1060" height="670" as="geometry" />
        </mxCell>
        <mxCell id="DgHET1fLF6kAz4JPhvIX-25" value="" style="rounded=0;whiteSpace=wrap;html=1;fillColor=#dae8fc;strokeColor=#6c8ebf;" vertex="1" parent="1">
          <mxGeometry x="-7615" y="-4990" width="1910" height="1095" as="geometry" />
        </mxCell>
        <mxCell id="DgHET1fLF6kAz4JPhvIX-26" value="" style="rounded=0;whiteSpace=wrap;html=1;fillColor=#d5e8d4;strokeColor=#82b366;" vertex="1" parent="1">
          <mxGeometry x="-7190" y="-4885" width="1060" height="670" as="geometry" />
        </mxCell>
        <mxCell id="DgHET1fLF6kAz4JPhvIX-28" value="&lt;font style=&quot;font-size: 30px;&quot;&gt;Hor Blank Time==560pixels&lt;/font&gt;" style="text;html=1;align=center;verticalAlign=middle;resizable=0;points=[];autosize=1;strokeColor=none;fillColor=none;" vertex="1" parent="1">
          <mxGeometry x="-5880" y="-5250" width="390" height="50" as="geometry" />
        </mxCell>
        <mxCell id="DgHET1fLF6kAz4JPhvIX-32" value="" style="endArrow=classic;startArrow=classic;html=1;rounded=0;strokeWidth=4;" edge="1" parent="1">
          <mxGeometry width="50" height="50" relative="1" as="geometry">
            <mxPoint x="-5988" y="-5426" as="sourcePoint" />
            <mxPoint x="-6130" y="-5426" as="targetPoint" />
          </mxGeometry>
        </mxCell>
        <mxCell id="DgHET1fLF6kAz4JPhvIX-33" value="" style="endArrow=classic;startArrow=classic;html=1;rounded=0;strokeWidth=4;" edge="1" parent="1">
          <mxGeometry width="50" height="50" relative="1" as="geometry">
            <mxPoint x="-5280" y="-5289" as="sourcePoint" />
            <mxPoint x="-5770" y="-5289" as="targetPoint" />
          </mxGeometry>
        </mxCell>
        <mxCell id="DgHET1fLF6kAz4JPhvIX-34" value="" style="endArrow=classic;startArrow=classic;html=1;rounded=0;strokeWidth=4;" edge="1" parent="1">
          <mxGeometry width="50" height="50" relative="1" as="geometry">
            <mxPoint x="-5760" y="-5354" as="sourcePoint" />
            <mxPoint x="-5990" y="-5354" as="targetPoint" />
          </mxGeometry>
        </mxCell>
        <mxCell id="DgHET1fLF6kAz4JPhvIX-35" value="&lt;span style=&quot;color: rgb(240, 240, 240); font-family: Helvetica; font-size: 30px; font-style: normal; font-variant-ligatures: normal; font-variant-caps: normal; font-weight: 400; letter-spacing: normal; orphans: 2; text-align: center; text-indent: 0px; text-transform: none; widows: 2; word-spacing: 0px; -webkit-text-stroke-width: 0px; white-space: nowrap; background-color: rgb(27, 29, 30); text-decoration-thickness: initial; text-decoration-style: initial; text-decoration-color: initial; display: inline !important; float: none;&quot;&gt; H Front Porch==104pixels&lt;/span&gt;" style="text;whiteSpace=wrap;html=1;" vertex="1" parent="1">
          <mxGeometry x="-6233" y="-5490" width="400" height="60" as="geometry" />
        </mxCell>
        <mxCell id="DgHET1fLF6kAz4JPhvIX-36" value="&lt;span style=&quot;color: rgb(240, 240, 240); font-family: Helvetica; font-size: 30px; font-style: normal; font-variant-ligatures: normal; font-variant-caps: normal; font-weight: 400; letter-spacing: normal; orphans: 2; text-align: center; text-indent: 0px; text-transform: none; widows: 2; word-spacing: 0px; -webkit-text-stroke-width: 0px; white-space: nowrap; background-color: rgb(27, 29, 30); text-decoration-thickness: initial; text-decoration-style: initial; text-decoration-color: initial; display: inline !important; float: none;&quot;&gt; H Sync Time==176pixels&lt;/span&gt;" style="text;whiteSpace=wrap;html=1;" vertex="1" parent="1">
          <mxGeometry x="-6063" y="-5415" width="400" height="60" as="geometry" />
        </mxCell>
        <mxCell id="DgHET1fLF6kAz4JPhvIX-37" value="&lt;span style=&quot;color: rgb(240, 240, 240); font-family: Helvetica; font-size: 30px; font-style: normal; font-variant-ligatures: normal; font-variant-caps: normal; font-weight: 400; letter-spacing: normal; orphans: 2; text-align: center; text-indent: 0px; text-transform: none; widows: 2; word-spacing: 0px; -webkit-text-stroke-width: 0px; white-space: nowrap; background-color: rgb(27, 29, 30); text-decoration-thickness: initial; text-decoration-style: initial; text-decoration-color: initial; display: inline !important; float: none;&quot;&gt;  H Back Porch==280pixels&lt;/span&gt;" style="text;whiteSpace=wrap;html=1;" vertex="1" parent="1">
          <mxGeometry x="-5720" y="-5349" width="400" height="60" as="geometry" />
        </mxCell>
        <mxCell id="DgHET1fLF6kAz4JPhvIX-39" value="" style="endArrow=none;html=1;rounded=0;endSize=0;fillColor=#e1d5e7;strokeColor=#9673a6;startSize=0;strokeWidth=4;dashed=1;" edge="1" parent="1">
          <mxGeometry width="50" height="50" relative="1" as="geometry">
            <mxPoint x="-7970" y="-3900" as="sourcePoint" />
            <mxPoint x="-1620" y="-3885" as="targetPoint" />
          </mxGeometry>
        </mxCell>
        <mxCell id="DgHET1fLF6kAz4JPhvIX-40" value="" style="rounded=0;whiteSpace=wrap;html=1;fillColor=#dae8fc;strokeColor=#6c8ebf;" vertex="1" parent="1">
          <mxGeometry x="-5705" y="-3900" width="1910" height="1095" as="geometry" />
        </mxCell>
        <mxCell id="DgHET1fLF6kAz4JPhvIX-41" value="" style="rounded=0;whiteSpace=wrap;html=1;fillColor=#d5e8d4;strokeColor=#82b366;" vertex="1" parent="1">
          <mxGeometry x="-5280" y="-3795" width="1060" height="670" as="geometry" />
        </mxCell>
        <mxCell id="DgHET1fLF6kAz4JPhvIX-43" value="" style="rounded=0;whiteSpace=wrap;html=1;fillColor=#dae8fc;strokeColor=#6c8ebf;" vertex="1" parent="1">
          <mxGeometry x="-3795" y="-3900" width="1910" height="1095" as="geometry" />
        </mxCell>
        <mxCell id="DgHET1fLF6kAz4JPhvIX-44" value="" style="rounded=0;whiteSpace=wrap;html=1;fillColor=#d5e8d4;strokeColor=#82b366;" vertex="1" parent="1">
          <mxGeometry x="-3370" y="-3795" width="1060" height="670" as="geometry" />
        </mxCell>
        <mxCell id="DgHET1fLF6kAz4JPhvIX-45" value="" style="rounded=0;whiteSpace=wrap;html=1;fillColor=#dae8fc;strokeColor=#6c8ebf;" vertex="1" parent="1">
          <mxGeometry x="-7615" y="-3900" width="1910" height="1095" as="geometry" />
        </mxCell>
        <mxCell id="DgHET1fLF6kAz4JPhvIX-46" value="" style="rounded=0;whiteSpace=wrap;html=1;fillColor=#d5e8d4;strokeColor=#82b366;" vertex="1" parent="1">
          <mxGeometry x="-7190" y="-3795" width="1060" height="670" as="geometry" />
        </mxCell>
        <mxCell id="DgHET1fLF6kAz4JPhvIX-10" value="" style="endArrow=none;html=1;rounded=0;strokeWidth=4;strokeColor=#9673a6;fillColor=#e1d5e7;dashed=1;" edge="1" parent="1">
          <mxGeometry width="50" height="50" relative="1" as="geometry">
            <mxPoint x="-5705" y="-3672.5" as="sourcePoint" />
            <mxPoint x="-5705" y="-5140" as="targetPoint" />
          </mxGeometry>
        </mxCell>
        <mxCell id="DgHET1fLF6kAz4JPhvIX-11" value="" style="endArrow=none;html=1;rounded=0;strokeWidth=4;strokeColor=#9673a6;fillColor=#e1d5e7;dashed=1;" edge="1" parent="1">
          <mxGeometry width="50" height="50" relative="1" as="geometry">
            <mxPoint x="-5280" y="-3690" as="sourcePoint" />
            <mxPoint x="-5280" y="-5560" as="targetPoint" />
          </mxGeometry>
        </mxCell>
        <mxCell id="DgHET1fLF6kAz4JPhvIX-14" value="" style="endArrow=none;html=1;rounded=0;strokeWidth=4;strokeColor=#9673a6;fillColor=#e1d5e7;dashed=1;" edge="1" parent="1">
          <mxGeometry width="50" height="50" relative="1" as="geometry">
            <mxPoint x="-3795" y="-3720" as="sourcePoint" />
            <mxPoint x="-3795" y="-5260" as="targetPoint" />
          </mxGeometry>
        </mxCell>
        <mxCell id="DgHET1fLF6kAz4JPhvIX-16" value="" style="endArrow=none;html=1;rounded=0;strokeWidth=4;strokeColor=#9673a6;fillColor=#e1d5e7;dashed=1;" edge="1" parent="1">
          <mxGeometry width="50" height="50" relative="1" as="geometry">
            <mxPoint x="-4222.86" y="-3710" as="sourcePoint" />
            <mxPoint x="-4222.86" y="-5250" as="targetPoint" />
          </mxGeometry>
        </mxCell>
        <mxCell id="DgHET1fLF6kAz4JPhvIX-24" value="" style="endArrow=none;html=1;rounded=0;strokeWidth=4;strokeColor=#9673a6;fillColor=#e1d5e7;dashed=1;" edge="1" parent="1">
          <mxGeometry width="50" height="50" relative="1" as="geometry">
            <mxPoint x="-3370" y="-3710" as="sourcePoint" />
            <mxPoint x="-3370" y="-5250" as="targetPoint" />
          </mxGeometry>
        </mxCell>
        <mxCell id="DgHET1fLF6kAz4JPhvIX-27" value="" style="endArrow=none;html=1;rounded=0;strokeWidth=4;strokeColor=#9673a6;fillColor=#e1d5e7;dashed=1;" edge="1" parent="1">
          <mxGeometry width="50" height="50" relative="1" as="geometry">
            <mxPoint x="-6130" y="-3680" as="sourcePoint" />
            <mxPoint x="-6130" y="-5510" as="targetPoint" />
          </mxGeometry>
        </mxCell>
        <mxCell id="DgHET1fLF6kAz4JPhvIX-30" value="" style="endArrow=none;html=1;rounded=0;strokeWidth=4;strokeColor=#9673a6;fillColor=#e1d5e7;dashed=1;" edge="1" parent="1">
          <mxGeometry width="50" height="50" relative="1" as="geometry">
            <mxPoint x="-5990" y="-3680" as="sourcePoint" />
            <mxPoint x="-5990" y="-5530" as="targetPoint" />
          </mxGeometry>
        </mxCell>
        <mxCell id="DgHET1fLF6kAz4JPhvIX-31" value="" style="endArrow=none;html=1;rounded=0;strokeWidth=4;strokeColor=#9673a6;fillColor=#e1d5e7;dashed=1;" edge="1" parent="1">
          <mxGeometry width="50" height="50" relative="1" as="geometry">
            <mxPoint x="-5770" y="-3672.5" as="sourcePoint" />
            <mxPoint x="-5770" y="-5520" as="targetPoint" />
          </mxGeometry>
        </mxCell>
        <mxCell id="DgHET1fLF6kAz4JPhvIX-93" value="Text" style="edgeLabel;html=1;align=center;verticalAlign=middle;resizable=0;points=[];" vertex="1" connectable="0" parent="DgHET1fLF6kAz4JPhvIX-31">
          <mxGeometry x="0.6757" y="8" relative="1" as="geometry">
            <mxPoint y="1" as="offset" />
          </mxGeometry>
        </mxCell>
        <mxCell id="DgHET1fLF6kAz4JPhvIX-38" value="" style="endArrow=none;html=1;rounded=0;endSize=0;fillColor=#e1d5e7;strokeColor=#9673a6;startSize=0;strokeWidth=4;dashed=1;" edge="1" parent="1">
          <mxGeometry width="50" height="50" relative="1" as="geometry">
            <mxPoint x="-7940" y="-4220" as="sourcePoint" />
            <mxPoint x="-1600" y="-4205" as="targetPoint" />
          </mxGeometry>
        </mxCell>
        <mxCell id="DgHET1fLF6kAz4JPhvIX-6" value="" style="endArrow=none;html=1;rounded=0;endSize=0;fillColor=#e1d5e7;strokeColor=#9673a6;startSize=0;strokeWidth=4;dashed=1;" edge="1" parent="1">
          <mxGeometry width="50" height="50" relative="1" as="geometry">
            <mxPoint x="-7880" y="-4890" as="sourcePoint" />
            <mxPoint x="-1550" y="-4875" as="targetPoint" />
          </mxGeometry>
        </mxCell>
        <mxCell id="DgHET1fLF6kAz4JPhvIX-48" value="" style="endArrow=none;html=1;rounded=0;endSize=0;fillColor=#e1d5e7;strokeColor=#9673a6;startSize=0;strokeWidth=4;dashed=1;" edge="1" parent="1">
          <mxGeometry width="50" height="50" relative="1" as="geometry">
            <mxPoint x="-8040" y="-2810" as="sourcePoint" />
            <mxPoint x="-1690" y="-2795" as="targetPoint" />
          </mxGeometry>
        </mxCell>
        <mxCell id="DgHET1fLF6kAz4JPhvIX-50" value="" style="endArrow=classic;startArrow=classic;html=1;rounded=0;strokeWidth=4;fillColor=#fff2cc;strokeColor=#d6b656;" edge="1" parent="1">
          <mxGeometry width="50" height="50" relative="1" as="geometry">
            <mxPoint x="-7500" y="-4225" as="sourcePoint" />
            <mxPoint x="-7500" y="-4890" as="targetPoint" />
          </mxGeometry>
        </mxCell>
        <mxCell id="DgHET1fLF6kAz4JPhvIX-51" value="&lt;font style=&quot;font-size: 24px;&quot;&gt;Ver Addr Time==1050lines&lt;/font&gt;" style="edgeLabel;html=1;align=center;verticalAlign=middle;resizable=0;points=[];" vertex="1" connectable="0" parent="DgHET1fLF6kAz4JPhvIX-50">
          <mxGeometry x="-0.0328" relative="1" as="geometry">
            <mxPoint as="offset" />
          </mxGeometry>
        </mxCell>
        <mxCell id="DgHET1fLF6kAz4JPhvIX-55" value="" style="endArrow=classic;startArrow=classic;html=1;rounded=0;strokeWidth=4;fillColor=#fff2cc;strokeColor=#d6b656;" edge="1" parent="1">
          <mxGeometry width="50" height="50" relative="1" as="geometry">
            <mxPoint x="-7680" y="-3900" as="sourcePoint" />
            <mxPoint x="-7680" y="-4990" as="targetPoint" />
          </mxGeometry>
        </mxCell>
        <mxCell id="DgHET1fLF6kAz4JPhvIX-56" value="&lt;font style=&quot;font-size: 24px;&quot;&gt;Ver Total Time==1089lines&lt;/font&gt;" style="edgeLabel;html=1;align=center;verticalAlign=middle;resizable=0;points=[];" vertex="1" connectable="0" parent="DgHET1fLF6kAz4JPhvIX-55">
          <mxGeometry x="-0.0328" relative="1" as="geometry">
            <mxPoint as="offset" />
          </mxGeometry>
        </mxCell>
        <mxCell id="DgHET1fLF6kAz4JPhvIX-57" value="" style="endArrow=none;html=1;rounded=0;endSize=0;fillColor=#e1d5e7;strokeColor=#9673a6;startSize=0;strokeWidth=4;dashed=1;" edge="1" parent="1">
          <mxGeometry width="50" height="50" relative="1" as="geometry">
            <mxPoint x="-7840" y="-4995" as="sourcePoint" />
            <mxPoint x="-1510" y="-4980" as="targetPoint" />
          </mxGeometry>
        </mxCell>
        <mxCell id="DgHET1fLF6kAz4JPhvIX-58" value="" style="endArrow=none;html=1;rounded=0;endSize=0;fillColor=#e1d5e7;strokeColor=#9673a6;startSize=0;strokeWidth=4;dashed=1;" edge="1" parent="1">
          <mxGeometry width="50" height="50" relative="1" as="geometry">
            <mxPoint x="-7940" y="-3799" as="sourcePoint" />
            <mxPoint x="-1590" y="-3784" as="targetPoint" />
          </mxGeometry>
        </mxCell>
        <mxCell id="DgHET1fLF6kAz4JPhvIX-59" value="" style="endArrow=classic;startArrow=classic;html=1;rounded=0;strokeWidth=4;fillColor=#fff2cc;strokeColor=#d6b656;" edge="1" parent="1">
          <mxGeometry width="50" height="50" relative="1" as="geometry">
            <mxPoint x="-7380" y="-3795" as="sourcePoint" />
            <mxPoint x="-7380" y="-4220" as="targetPoint" />
          </mxGeometry>
        </mxCell>
        <mxCell id="DgHET1fLF6kAz4JPhvIX-60" value="&lt;font style=&quot;font-size: 24px;&quot;&gt;Ver Blank Time==39lines&lt;/font&gt;" style="edgeLabel;html=1;align=center;verticalAlign=middle;resizable=0;points=[];" vertex="1" connectable="0" parent="DgHET1fLF6kAz4JPhvIX-59">
          <mxGeometry x="-0.0328" relative="1" as="geometry">
            <mxPoint as="offset" />
          </mxGeometry>
        </mxCell>
        <mxCell id="DgHET1fLF6kAz4JPhvIX-61" value="" style="endArrow=classic;startArrow=classic;html=1;rounded=0;strokeWidth=4;fillColor=#fff2cc;strokeColor=#d6b656;" edge="1" parent="1">
          <mxGeometry width="50" height="50" relative="1" as="geometry">
            <mxPoint x="-7090" y="-4085" as="sourcePoint" />
            <mxPoint x="-7090" y="-4170" as="targetPoint" />
          </mxGeometry>
        </mxCell>
        <mxCell id="DgHET1fLF6kAz4JPhvIX-62" value="&lt;font style=&quot;font-size: 18px;&quot;&gt;Ver Sync Time==6lines&lt;/font&gt;" style="edgeLabel;html=1;align=center;verticalAlign=middle;resizable=0;points=[];" vertex="1" connectable="0" parent="DgHET1fLF6kAz4JPhvIX-61">
          <mxGeometry x="-0.0328" relative="1" as="geometry">
            <mxPoint as="offset" />
          </mxGeometry>
        </mxCell>
        <mxCell id="DgHET1fLF6kAz4JPhvIX-63" value="" style="endArrow=classic;startArrow=classic;html=1;rounded=0;strokeWidth=4;fillColor=#fff2cc;strokeColor=#d6b656;" edge="1" parent="1">
          <mxGeometry width="50" height="50" relative="1" as="geometry">
            <mxPoint x="-6960" y="-4165" as="sourcePoint" />
            <mxPoint x="-6960" y="-4215" as="targetPoint" />
          </mxGeometry>
        </mxCell>
        <mxCell id="DgHET1fLF6kAz4JPhvIX-64" value="&lt;font style=&quot;font-size: 15px;&quot;&gt;V Front Porch==3lines&lt;/font&gt;" style="edgeLabel;html=1;align=center;verticalAlign=middle;resizable=0;points=[];" vertex="1" connectable="0" parent="DgHET1fLF6kAz4JPhvIX-63">
          <mxGeometry x="-0.0328" relative="1" as="geometry">
            <mxPoint as="offset" />
          </mxGeometry>
        </mxCell>
        <mxCell id="DgHET1fLF6kAz4JPhvIX-65" value="" style="endArrow=none;html=1;rounded=0;endSize=0;fillColor=#e1d5e7;strokeColor=#9673a6;startSize=0;strokeWidth=4;dashed=1;" edge="1" parent="1">
          <mxGeometry width="50" height="50" relative="1" as="geometry">
            <mxPoint x="-7950" y="-4170" as="sourcePoint" />
            <mxPoint x="-1600" y="-4155" as="targetPoint" />
          </mxGeometry>
        </mxCell>
        <mxCell id="DgHET1fLF6kAz4JPhvIX-66" value="" style="endArrow=none;html=1;rounded=0;endSize=0;fillColor=#e1d5e7;strokeColor=#9673a6;startSize=0;strokeWidth=4;dashed=1;" edge="1" parent="1">
          <mxGeometry width="50" height="50" relative="1" as="geometry">
            <mxPoint x="-7950" y="-4090" as="sourcePoint" />
            <mxPoint x="-1600" y="-4075" as="targetPoint" />
          </mxGeometry>
        </mxCell>
        <mxCell id="DgHET1fLF6kAz4JPhvIX-67" value="" style="endArrow=classic;startArrow=classic;html=1;rounded=0;strokeWidth=4;fillColor=#fff2cc;strokeColor=#d6b656;" edge="1" parent="1">
          <mxGeometry width="50" height="50" relative="1" as="geometry">
            <mxPoint x="-7220" y="-3786" as="sourcePoint" />
            <mxPoint x="-7220" y="-4086" as="targetPoint" />
          </mxGeometry>
        </mxCell>
        <mxCell id="DgHET1fLF6kAz4JPhvIX-68" value="&lt;font style=&quot;font-size: 18px;&quot;&gt; V Back Porch==30lines&lt;/font&gt;" style="edgeLabel;html=1;align=center;verticalAlign=middle;resizable=0;points=[];" vertex="1" connectable="0" parent="DgHET1fLF6kAz4JPhvIX-67">
          <mxGeometry x="-0.0328" relative="1" as="geometry">
            <mxPoint as="offset" />
          </mxGeometry>
        </mxCell>
        <mxCell id="DgHET1fLF6kAz4JPhvIX-69" value="" style="endArrow=classic;startArrow=classic;html=1;rounded=0;strokeWidth=4;fillColor=#fff2cc;strokeColor=#d6b656;" edge="1" parent="1">
          <mxGeometry width="50" height="50" relative="1" as="geometry">
            <mxPoint x="-5950" y="-4225" as="sourcePoint" />
            <mxPoint x="-5950" y="-4890" as="targetPoint" />
          </mxGeometry>
        </mxCell>
        <mxCell id="DgHET1fLF6kAz4JPhvIX-70" value="&lt;font style=&quot;font-size: 24px;&quot;&gt;Ver Addr Time==1050lines&lt;/font&gt;" style="edgeLabel;html=1;align=center;verticalAlign=middle;resizable=0;points=[];" vertex="1" connectable="0" parent="DgHET1fLF6kAz4JPhvIX-69">
          <mxGeometry x="-0.0328" relative="1" as="geometry">
            <mxPoint as="offset" />
          </mxGeometry>
        </mxCell>
        <mxCell id="DgHET1fLF6kAz4JPhvIX-71" value="" style="endArrow=classic;startArrow=classic;html=1;rounded=0;strokeWidth=4;fillColor=#fff2cc;strokeColor=#d6b656;" edge="1" parent="1">
          <mxGeometry width="50" height="50" relative="1" as="geometry">
            <mxPoint x="-6130" y="-3900" as="sourcePoint" />
            <mxPoint x="-6130" y="-4990" as="targetPoint" />
          </mxGeometry>
        </mxCell>
        <mxCell id="DgHET1fLF6kAz4JPhvIX-72" value="&lt;font style=&quot;font-size: 24px;&quot;&gt;Ver Total Time==1089lines&lt;/font&gt;" style="edgeLabel;html=1;align=center;verticalAlign=middle;resizable=0;points=[];" vertex="1" connectable="0" parent="DgHET1fLF6kAz4JPhvIX-71">
          <mxGeometry x="-0.0328" relative="1" as="geometry">
            <mxPoint as="offset" />
          </mxGeometry>
        </mxCell>
        <mxCell id="DgHET1fLF6kAz4JPhvIX-73" value="" style="endArrow=classic;startArrow=classic;html=1;rounded=0;strokeWidth=4;fillColor=#fff2cc;strokeColor=#d6b656;" edge="1" parent="1">
          <mxGeometry width="50" height="50" relative="1" as="geometry">
            <mxPoint x="-5830" y="-3795" as="sourcePoint" />
            <mxPoint x="-5830" y="-4220" as="targetPoint" />
          </mxGeometry>
        </mxCell>
        <mxCell id="DgHET1fLF6kAz4JPhvIX-74" value="&lt;font style=&quot;font-size: 24px;&quot;&gt;Ver Blank Time==39lines&lt;/font&gt;" style="edgeLabel;html=1;align=center;verticalAlign=middle;resizable=0;points=[];" vertex="1" connectable="0" parent="DgHET1fLF6kAz4JPhvIX-73">
          <mxGeometry x="-0.0328" relative="1" as="geometry">
            <mxPoint as="offset" />
          </mxGeometry>
        </mxCell>
        <mxCell id="DgHET1fLF6kAz4JPhvIX-75" value="" style="endArrow=classic;startArrow=classic;html=1;rounded=0;strokeWidth=4;fillColor=#fff2cc;strokeColor=#d6b656;" edge="1" parent="1">
          <mxGeometry width="50" height="50" relative="1" as="geometry">
            <mxPoint x="-5540" y="-4085" as="sourcePoint" />
            <mxPoint x="-5540" y="-4170" as="targetPoint" />
          </mxGeometry>
        </mxCell>
        <mxCell id="DgHET1fLF6kAz4JPhvIX-76" value="&lt;font style=&quot;font-size: 18px;&quot;&gt;Ver Sync Time==6lines&lt;/font&gt;" style="edgeLabel;html=1;align=center;verticalAlign=middle;resizable=0;points=[];" vertex="1" connectable="0" parent="DgHET1fLF6kAz4JPhvIX-75">
          <mxGeometry x="-0.0328" relative="1" as="geometry">
            <mxPoint as="offset" />
          </mxGeometry>
        </mxCell>
        <mxCell id="DgHET1fLF6kAz4JPhvIX-77" value="" style="endArrow=classic;startArrow=classic;html=1;rounded=0;strokeWidth=4;fillColor=#fff2cc;strokeColor=#d6b656;" edge="1" parent="1">
          <mxGeometry width="50" height="50" relative="1" as="geometry">
            <mxPoint x="-5410" y="-4165" as="sourcePoint" />
            <mxPoint x="-5410" y="-4215" as="targetPoint" />
          </mxGeometry>
        </mxCell>
        <mxCell id="DgHET1fLF6kAz4JPhvIX-78" value="&lt;font style=&quot;font-size: 15px;&quot;&gt;V Front Porch==3lines&lt;/font&gt;" style="edgeLabel;html=1;align=center;verticalAlign=middle;resizable=0;points=[];" vertex="1" connectable="0" parent="DgHET1fLF6kAz4JPhvIX-77">
          <mxGeometry x="-0.0328" relative="1" as="geometry">
            <mxPoint as="offset" />
          </mxGeometry>
        </mxCell>
        <mxCell id="DgHET1fLF6kAz4JPhvIX-79" value="" style="endArrow=classic;startArrow=classic;html=1;rounded=0;strokeWidth=4;fillColor=#fff2cc;strokeColor=#d6b656;" edge="1" parent="1">
          <mxGeometry width="50" height="50" relative="1" as="geometry">
            <mxPoint x="-5670" y="-3786" as="sourcePoint" />
            <mxPoint x="-5670" y="-4086" as="targetPoint" />
          </mxGeometry>
        </mxCell>
        <mxCell id="DgHET1fLF6kAz4JPhvIX-80" value="&lt;font style=&quot;font-size: 18px;&quot;&gt; V Back Porch==30lines&lt;/font&gt;" style="edgeLabel;html=1;align=center;verticalAlign=middle;resizable=0;points=[];" vertex="1" connectable="0" parent="DgHET1fLF6kAz4JPhvIX-79">
          <mxGeometry x="-0.0328" relative="1" as="geometry">
            <mxPoint as="offset" />
          </mxGeometry>
        </mxCell>
        <mxCell id="DgHET1fLF6kAz4JPhvIX-87" value="&lt;font color=&quot;#ff0000&quot; style=&quot;font-size: 35px;&quot;&gt;2&lt;/font&gt;" style="ellipse;whiteSpace=wrap;html=1;aspect=fixed;" vertex="1" parent="1">
          <mxGeometry x="-5030" y="-5550" width="80" height="80" as="geometry" />
        </mxCell>
        <mxCell id="DgHET1fLF6kAz4JPhvIX-88" value="&lt;font color=&quot;#ff0000&quot; style=&quot;font-size: 35px;&quot;&gt;1&lt;/font&gt;" style="ellipse;whiteSpace=wrap;html=1;aspect=fixed;" vertex="1" parent="1">
          <mxGeometry x="-5030" y="-5700" width="80" height="80" as="geometry" />
        </mxCell>
        <mxCell id="DgHET1fLF6kAz4JPhvIX-89" value="&lt;font color=&quot;#ff0000&quot; style=&quot;font-size: 35px;&quot;&gt;3&lt;/font&gt;" style="ellipse;whiteSpace=wrap;html=1;aspect=fixed;" vertex="1" parent="1">
          <mxGeometry x="-5030" y="-5390" width="80" height="80" as="geometry" />
        </mxCell>
        <mxCell id="DgHET1fLF6kAz4JPhvIX-90" value="&lt;font style=&quot;font-size: 35px;&quot;&gt;DE&amp;nbsp; &amp;nbsp; &amp;nbsp;==&amp;nbsp; &amp;nbsp; &amp;nbsp;1680&amp;nbsp; &amp;nbsp;&lt;span style=&quot;white-space: pre;&quot;&gt;&#x9;&lt;/span&gt;x&amp;nbsp; &amp;nbsp;1050&lt;/font&gt;&lt;div style=&quot;font-size: 35px;&quot;&gt;&lt;font style=&quot;font-size: 35px;&quot;&gt;&amp;nbsp; &amp;nbsp;&lt;span style=&quot;white-space: pre;&quot;&gt;&#x9;&lt;/span&gt;&lt;span style=&quot;white-space: pre;&quot;&gt;&#x9;&lt;/span&gt;&lt;span style=&quot;white-space: pre;&quot;&gt;&#x9;&lt;/span&gt;&lt;span style=&quot;white-space: pre;&quot;&gt;&#x9;&lt;/span&gt;&lt;span style=&quot;white-space: pre;&quot;&gt;&#x9;&lt;/span&gt;&lt;span style=&quot;white-space: pre;&quot;&gt;&#x9;&lt;/span&gt;Hor Addr Time&amp;nbsp; &amp;nbsp;x&amp;nbsp; &amp;nbsp;Ver Addr Time&amp;nbsp;&lt;/font&gt;&lt;/div&gt;" style="text;html=1;align=center;verticalAlign=middle;resizable=0;points=[];autosize=1;strokeColor=none;fillColor=none;" vertex="1" parent="1">
          <mxGeometry x="-5185" y="-5710" width="1020" height="100" as="geometry" />
        </mxCell>
        <mxCell id="DgHET1fLF6kAz4JPhvIX-91" value="&lt;span style=&quot;font-size: 30px;&quot;&gt;&amp;nbsp; &amp;nbsp; &amp;nbsp; &amp;nbsp; &amp;nbsp; &amp;nbsp; &amp;nbsp; &amp;nbsp; &amp;nbsp; &amp;nbsp; &amp;nbsp; &amp;nbsp; &amp;nbsp; &amp;nbsp; &amp;nbsp; &amp;nbsp; &amp;nbsp; &amp;nbsp; &amp;nbsp; &amp;nbsp; &amp;nbsp; &amp;nbsp; &amp;nbsp; &amp;nbsp; &amp;nbsp; Hor Blank Time&amp;nbsp; &amp;nbsp;&amp;nbsp;&lt;/span&gt;&lt;span style=&quot;font-size: 35px;&quot;&gt;==&amp;nbsp; &amp;nbsp; 104&lt;span style=&quot;white-space: pre;&quot;&gt;&#x9;&lt;/span&gt;+&lt;span style=&quot;white-space: pre;&quot;&gt;&#x9;&lt;/span&gt;176&lt;span style=&quot;white-space: pre;&quot;&gt;&#x9;&lt;/span&gt;+&lt;span style=&quot;white-space: pre;&quot;&gt;&#x9;&lt;/span&gt;280&lt;/span&gt;&lt;div style=&quot;font-size: 35px;&quot;&gt;&lt;span style=&quot;&quot;&gt;&lt;span style=&quot;white-space: pre;&quot;&gt;&#x9;&lt;/span&gt;&lt;span style=&quot;white-space: pre;&quot;&gt;&#x9;&lt;/span&gt;&lt;span style=&quot;white-space: pre;&quot;&gt;&#x9;&lt;/span&gt;&lt;span style=&quot;white-space: pre;&quot;&gt;&#x9;&lt;span style=&quot;white-space: pre;&quot;&gt;&#x9;&lt;/span&gt;&lt;span style=&quot;white-space: pre;&quot;&gt;&#x9;&lt;/span&gt;&lt;span style=&quot;white-space: pre;&quot;&gt;&#x9;&lt;/span&gt;&lt;span style=&quot;white-space: pre;&quot;&gt;&#x9;&lt;/span&gt;&lt;span style=&quot;white-space: pre;&quot;&gt;&#x9;&lt;/span&gt;&lt;span style=&quot;white-space: pre;&quot;&gt;&#x9;&lt;/span&gt;&lt;span style=&quot;white-space: pre;&quot;&gt;&#x9;&lt;/span&gt;&lt;span style=&quot;white-space: pre;&quot;&gt;&#x9;&lt;/span&gt; &lt;/span&gt;&amp;nbsp; &amp;nbsp; &amp;nbsp; &amp;nbsp; H Front Porch&lt;span style=&quot;white-space: pre;&quot;&gt;&#x9;&lt;/span&gt;+&lt;span style=&quot;white-space: pre;&quot;&gt;&#x9;&lt;/span&gt;&lt;/span&gt;&lt;span style=&quot;&quot;&gt;H Sync Time&lt;span style=&quot;white-space: pre;&quot;&gt;&#x9;&lt;/span&gt;+&lt;span style=&quot;white-space: pre;&quot;&gt;&#x9;&lt;/span&gt;&lt;/span&gt;&lt;span style=&quot;&quot;&gt;H Back Porch&lt;/span&gt;&lt;/div&gt;" style="text;html=1;align=center;verticalAlign=middle;resizable=0;points=[];autosize=1;strokeColor=none;fillColor=none;" vertex="1" parent="1">
          <mxGeometry x="-5685" y="-5540" width="1870" height="100" as="geometry" />
        </mxCell>
        <mxCell id="DgHET1fLF6kAz4JPhvIX-92" value="&lt;font style=&quot;font-size: 35px;&quot;&gt;Ver Blank Time&amp;nbsp; &amp;nbsp;==&amp;nbsp;&amp;nbsp;V Front Porch&amp;nbsp; +&amp;nbsp;&amp;nbsp;Ver Sync Time&amp;nbsp; +&amp;nbsp; &amp;nbsp;V Back Porch&lt;/font&gt;" style="text;html=1;align=center;verticalAlign=middle;resizable=0;points=[];autosize=1;strokeColor=none;fillColor=none;" vertex="1" parent="1">
          <mxGeometry x="-4900" y="-5380" width="1130" height="60" as="geometry" />
        </mxCell>
      </root>
    </mxGraphModel>
  </diagram>
</mxfile>
